<?xml version="1.0" encoding="UTF-8"?>
<!DOCTYPE svg PUBLIC "-//W3C//DTD SVG 1.1//EN" "http://www.w3.org/Graphics/SVG/1.1/DTD/svg11.dtd">
<svg xmlns="http://www.w3.org/2000/svg" xmlns:xlink="http://www.w3.org/1999/xlink" version="1.1" width="401px" height="155px" viewBox="-0.5 -0.5 401 155" style="background-color: rgb(255, 255, 255);"><defs/><g><rect x="94" y="64" width="45" height="10" fill="#f5f5f5" stroke="#666666" pointer-events="all"/><rect x="139" y="54" width="120" height="40" rx="6" ry="6" fill="#f5f5f5" stroke="#666666" pointer-events="all"/><rect x="139" y="74" width="120" height="20" rx="3" ry="3" fill="#000000" stroke="#000000" pointer-events="all"/><ellipse cx="199" cy="74" rx="13" ry="10" fill="#dae8fc" stroke="#6c8ebf" pointer-events="all"/><path d="M 90.5 51 L 125.5 51 Q 130.5 51 130.5 56 Q 130.5 61 125.5 61 L 90.5 61 Z" fill="none" stroke="#000000" stroke-width="2" stroke-miterlimit="10" pointer-events="all"/><path d="M 50.5 51 L 85.5 51 Q 90.5 51 90.5 56 Q 90.5 61 85.5 61 L 50.5 61 Z" fill="none" stroke="#000000" stroke-width="2" stroke-miterlimit="10" transform="rotate(180,70.5,56)" pointer-events="all"/><rect x="87" y="61" width="7" height="43" fill="#000000" stroke="#000000" stroke-width="2" pointer-events="all"/><rect x="259" y="64" width="45" height="10" fill="#f5f5f5" stroke="#666666" pointer-events="all"/><rect x="305" y="61" width="7" height="43" fill="#000000" stroke="#000000" stroke-width="2" pointer-events="all"/><path d="M 307.5 51 L 342.5 51 Q 347.5 51 347.5 56 Q 347.5 61 342.5 61 L 307.5 61 Z" fill="none" stroke="#000000" stroke-width="2" stroke-miterlimit="10" pointer-events="all"/><path d="M 267.5 51 L 302.5 51 Q 307.5 51 307.5 56 Q 307.5 61 302.5 61 L 267.5 61 Z" fill="none" stroke="#000000" stroke-width="2" stroke-miterlimit="10" transform="rotate(180,287.5,56)" pointer-events="all"/><path d="M 130.5 56 L 50.5 56" fill="none" stroke="#000000" stroke-miterlimit="10" pointer-events="stroke"/><path d="M 348.5 55.83 L 268.5 55.83" fill="none" stroke="#000000" stroke-miterlimit="10" pointer-events="stroke"/></g></svg>